<svg width="274" height="245" viewBox="0 0 274 245" fill="none" xmlns="http://www.w3.org/2000/svg">
<g clip-path="url(#clip0_572_71)">
<path d="M256.384 133.483L60.2853 217.442C58.946 218.014 57.4348 218.03 56.0833 217.488C54.7318 216.946 53.6503 215.89 53.0761 214.551L1.34512 93.539C0.926652 92.557 0.914461 91.4491 1.31123 90.4582C1.70799 89.4673 2.48131 88.6743 3.46153 88.2533L202.197 3.16537C203.195 2.73936 204.321 2.72698 205.328 3.13095C206.336 3.53493 207.142 4.32226 207.57 5.32022L259.273 126.268C259.845 127.608 259.861 129.121 259.32 130.473C258.778 131.826 257.722 132.908 256.384 133.483Z" fill="#F2F2F2"/>
<path d="M247.317 129.818L64.5576 208.066C61.8785 209.213 58.8258 208.103 57.7525 205.593L12.7045 100.214C11.9085 98.3519 12.876 96.1455 14.8612 95.2955L200.077 15.9958C202.096 15.1317 204.396 15.9686 205.205 17.8612L250.229 123.184C251.302 125.695 249.996 128.671 247.317 129.818Z" fill="white"/>
<path d="M207.741 5.91604L1.54343 94.199L0.4437 91.6265C-0.128954 90.2815 -0.145142 88.7642 0.398683 87.4073C0.942508 86.0504 2.00194 84.9648 3.34455 84.3887L199.407 0.444903C200.751 -0.129033 202.267 -0.146179 203.623 0.397226C204.98 0.940631 206.065 2.00021 206.641 3.34351L207.741 5.91604Z" fill="#FFB400"/>
<path d="M9.12292 87.87C9.91029 87.87 10.5486 87.2312 10.5486 86.4432C10.5486 85.6553 9.91029 85.0165 9.12292 85.0165C8.33555 85.0165 7.69727 85.6553 7.69727 86.4432C7.69727 87.2312 8.33555 87.87 9.12292 87.87Z" fill="white"/>
<path d="M14.098 85.7399C14.8854 85.7399 15.5237 85.1011 15.5237 84.3131C15.5237 83.5251 14.8854 82.8864 14.098 82.8864C13.3107 82.8864 12.6724 83.5251 12.6724 84.3131C12.6724 85.1011 13.3107 85.7399 14.098 85.7399Z" fill="white"/>
<path d="M19.0734 83.6097C19.8607 83.6097 20.499 82.971 20.499 82.183C20.499 81.395 19.8607 80.7562 19.0734 80.7562C18.286 80.7562 17.6477 81.395 17.6477 82.183C17.6477 82.971 18.286 83.6097 19.0734 83.6097Z" fill="white"/>
<path d="M101.143 121.17L76.7705 131.605C75.4312 132.177 73.9201 132.193 72.5686 131.651C71.2171 131.109 70.1356 130.053 69.5614 128.714L56.1072 97.2412C55.536 95.9008 55.5194 94.3885 56.061 93.036C56.6026 91.6835 57.6582 90.6011 58.9962 90.0265L83.369 79.5913C84.7083 79.0197 86.2195 79.0031 87.571 79.5451C88.9225 80.0871 90.0039 81.1435 90.5782 82.4825L104.032 113.955C104.604 115.296 104.62 116.808 104.079 118.16C103.537 119.513 102.481 120.595 101.143 121.17Z" fill="#F2F2F2"/>
<path d="M142.384 103.513L118.011 113.948C116.672 114.52 115.161 114.536 113.809 113.994C112.458 113.452 111.376 112.396 110.802 111.057L97.3479 79.5842C96.7768 78.2439 96.7602 76.7316 97.3018 75.379C97.8434 74.0265 98.8989 72.9442 100.237 72.3695L124.61 61.9343C125.949 61.3627 127.46 61.3461 128.812 61.8881C130.163 62.4301 131.245 63.4865 131.819 64.8255L145.273 96.2983C145.844 97.6386 145.861 99.1509 145.319 100.503C144.778 101.856 143.722 102.938 142.384 103.513Z" fill="#F2F2F2"/>
<path d="M183.625 85.8559L159.252 96.2911C157.913 96.8627 156.402 96.8793 155.05 96.3373C153.699 95.7952 152.617 94.7389 152.043 93.3999L138.589 61.9271C138.017 60.5868 138.001 59.0745 138.542 57.7219C139.084 56.3694 140.14 55.2871 141.478 54.7124L165.851 44.2772C167.19 43.7056 168.701 43.689 170.052 44.231C171.404 44.773 172.485 45.8294 173.06 47.1684L186.514 78.6412C187.085 79.9815 187.102 81.4938 186.56 82.8463C186.018 84.1989 184.963 85.2812 183.625 85.8559Z" fill="#F2F2F2"/>
<path d="M121.959 169.862L97.5859 180.297C96.2467 180.869 94.7355 180.886 93.384 180.344C92.0325 179.802 90.951 178.745 90.3768 177.406L76.9226 145.933C76.3515 144.593 76.3349 143.081 76.8765 141.728C77.4181 140.376 78.4736 139.293 79.8116 138.719L104.184 128.284C105.524 127.712 107.035 127.695 108.386 128.237C109.738 128.779 110.819 129.836 111.394 131.175L124.848 162.648C125.419 163.988 125.436 165.5 124.894 166.853C124.352 168.205 123.297 169.288 121.959 169.862Z" fill="#F2F2F2"/>
<path d="M163.199 152.205L138.826 162.64C137.487 163.212 135.976 163.229 134.624 162.687C133.273 162.144 132.192 161.088 131.617 159.749L118.163 128.276C117.592 126.936 117.575 125.424 118.117 124.071C118.659 122.719 119.714 121.636 121.052 121.062L145.425 110.626C146.764 110.055 148.275 110.038 149.627 110.58C150.978 111.122 152.06 112.179 152.634 113.518L166.088 144.99C166.659 146.331 166.676 147.843 166.134 149.196C165.593 150.548 164.537 151.63 163.199 152.205Z" fill="#F2F2F2"/>
<path d="M204.44 134.548L180.067 144.983C178.728 145.555 177.217 145.571 175.865 145.029C174.514 144.487 173.432 143.431 172.858 142.092L159.404 110.619C158.833 109.279 158.816 107.767 159.358 106.414C159.899 105.062 160.955 103.979 162.293 103.405L186.666 92.9693C188.005 92.3978 189.516 92.3811 190.868 92.9232C192.219 93.4652 193.301 94.5216 193.875 95.8605L207.329 127.333C207.9 128.674 207.917 130.186 207.375 131.538C206.834 132.891 205.778 133.973 204.44 134.548Z" fill="#F2F2F2"/>
<path d="M268.508 245H55.2171C53.7611 244.998 52.3652 244.419 51.3356 243.388C50.3061 242.358 49.727 240.961 49.7253 239.504V107.883C49.7265 106.815 50.1508 105.792 50.905 105.037C51.6593 104.282 52.6819 103.858 53.7486 103.856H269.907C270.992 103.858 272.033 104.29 272.8 105.058C273.567 105.825 273.999 106.867 274 107.953V239.504C273.998 240.961 273.419 242.358 272.39 243.388C271.36 244.419 269.964 244.998 268.508 245Z" fill="#E6E6E6"/>
<path d="M261.612 238.061H62.8302C59.9163 238.061 57.5457 235.839 57.5457 233.109V118.491C57.5457 116.466 59.3023 114.818 61.4616 114.818H262.916C265.111 114.818 266.897 116.493 266.897 118.552V233.109C266.897 235.839 264.526 238.061 261.612 238.061Z" fill="white"/>
<path d="M273.923 108.568H49.6482V105.77C49.6503 104.308 50.2318 102.906 51.2651 101.873C52.2984 100.839 53.6991 100.258 55.1599 100.257H268.412C269.873 100.258 271.273 100.839 272.307 101.873C273.34 102.906 273.921 104.308 273.923 105.77V108.568Z" fill="#FFB400"/>
<path d="M59.6649 105.848C60.4523 105.848 61.0906 105.209 61.0906 104.421C61.0906 103.633 60.4523 102.994 59.6649 102.994C58.8775 102.994 58.2393 103.633 58.2393 104.421C58.2393 105.209 58.8775 105.848 59.6649 105.848Z" fill="white"/>
<path d="M65.0765 105.848C65.8639 105.848 66.5022 105.209 66.5022 104.421C66.5022 103.633 65.8639 102.994 65.0765 102.994C64.2892 102.994 63.6509 103.633 63.6509 104.421C63.6509 105.209 64.2892 105.848 65.0765 105.848Z" fill="white"/>
<path d="M70.4879 105.848C71.2753 105.848 71.9136 105.209 71.9136 104.421C71.9136 103.633 71.2753 102.994 70.4879 102.994C69.7005 102.994 69.0623 103.633 69.0623 104.421C69.0623 105.209 69.7005 105.848 70.4879 105.848Z" fill="white"/>
<path d="M250.851 146.994H156.669C152.898 146.994 149.842 150.053 149.842 153.827V153.827C149.842 157.6 152.898 160.66 156.669 160.66H250.851C254.622 160.66 257.679 157.6 257.679 153.827C257.679 150.053 254.622 146.994 250.851 146.994Z" fill="#E6E6E6"/>
<path d="M250.851 169.607H156.669C152.898 169.607 149.842 172.666 149.842 176.44V176.44C149.842 180.213 152.898 183.272 156.669 183.272H250.851C254.622 183.272 257.679 180.213 257.679 176.44C257.679 172.666 254.622 169.607 250.851 169.607Z" fill="#E6E6E6"/>
<path d="M250.851 192.22H156.669C152.898 192.22 149.842 195.279 149.842 199.053V199.053C149.842 202.826 152.898 205.886 156.669 205.886H250.851C254.622 205.886 257.679 202.826 257.679 199.053C257.679 195.279 254.622 192.22 250.851 192.22Z" fill="#E6E6E6"/>
<path d="M140.985 176.44C140.985 183.686 138.838 190.77 134.815 196.796C130.792 202.821 125.074 207.517 118.384 210.29C111.694 213.064 104.333 213.789 97.2309 212.375C90.129 210.962 83.6054 207.472 78.4852 202.348C73.365 197.224 69.8781 190.695 68.4655 183.588C67.0528 176.48 67.7778 169.113 70.5489 162.418C73.3199 155.723 78.0125 150.001 84.0332 145.975C90.0539 141.949 97.1324 139.8 104.373 139.8C114.082 139.803 123.393 143.664 130.258 150.535C137.124 157.405 140.982 166.723 140.985 176.44Z" fill="white"/>
<path d="M121.294 182.709C120.895 206.142 86.0652 206.138 85.6687 182.708C86.0686 159.276 120.898 159.28 121.294 182.709Z" fill="#FFB400"/>
<path d="M102.775 189.982L102.756 189.316C107.344 189.929 108.332 184.239 103.705 186.366L104.761 178.642L105.421 178.732L104.522 185.303C109.394 184.577 107.592 190.648 102.775 189.982Z" fill="#2F2E41"/>
<path d="M112.267 179.299H108.682V179.965H112.267V179.299Z" fill="#2F2E41"/>
<path d="M100.951 179.299H97.366V179.965H100.951V179.299Z" fill="#2F2E41"/>
<path d="M109.256 207.633C109.955 202.914 104.433 203.846 101.511 203.8C101.04 203.801 100.575 203.908 100.15 204.112C99.7254 204.316 99.3514 204.612 99.0555 204.979C98.7597 205.346 98.5493 205.774 98.4398 206.233C98.3302 206.692 98.3243 207.169 98.4224 207.63C96.1606 208.33 94.0661 209.486 92.2683 211.028C99.8445 213.671 108.077 213.763 115.71 211.287C113.849 209.615 111.647 208.368 109.256 207.633Z" fill="#2F2E41"/>
<path d="M95.1072 174.277C98.4083 172.368 102.412 173.833 105.822 174.634C112.291 176.624 121.364 174.132 122.151 166.419C122.969 159.246 113.164 155.248 110.031 162.387L110.943 162.268C100.779 147.152 83.1001 147.725 83.2164 168.507C83.1787 169.149 84.1773 169.147 84.2147 168.507C83.8405 156.26 91.9392 147.889 103.387 155.759C106.007 157.672 108.127 160.206 110.081 162.772C111.273 164.11 111.532 158.351 117.239 159.859C123.519 162.294 121.47 171.294 115.856 173.269C108.921 176.815 101.409 169.94 94.6032 173.414C94.4936 173.483 94.4152 173.593 94.3845 173.719C94.3537 173.845 94.3731 173.978 94.4385 174.089C94.5039 174.201 94.6101 174.284 94.7349 174.319C94.8596 174.354 94.9931 174.339 95.1072 174.277V174.277Z" fill="#2F2E41"/>
<path d="M104.373 214.079C94.9188 214.071 85.8146 210.496 78.8766 204.068C71.9386 197.641 67.6766 188.832 66.9407 179.399C66.2048 169.965 69.0491 160.601 74.9062 153.174C80.7633 145.746 89.2028 140.801 98.5416 139.325C107.88 137.848 117.432 139.949 125.292 145.208C133.151 150.467 138.741 158.498 140.947 167.699C143.152 176.9 141.811 186.595 137.19 194.85C132.57 203.105 125.01 209.314 116.018 212.238C112.258 213.462 108.328 214.083 104.373 214.079ZM104.373 140.799C97.3283 140.798 90.4413 142.888 84.5831 146.804C78.725 150.721 74.159 156.288 71.4625 162.801C68.766 169.315 68.0603 176.483 69.4344 183.398C70.8086 190.313 74.201 196.664 79.1825 201.65C84.1641 206.635 90.5111 210.03 97.4208 211.406C104.33 212.781 111.493 212.074 118.001 209.376C124.51 206.677 130.072 202.108 133.986 196.245C137.899 190.382 139.987 183.49 139.986 176.44C139.976 166.99 136.22 157.931 129.544 151.25C122.867 144.568 113.815 140.81 104.373 140.799Z" fill="#3F3D56"/>
</g>
<defs>
<clipPath id="clip0_572_71">
<rect width="274" height="245" fill="white"/>
</clipPath>
</defs>
</svg>
