<svg width="274" height="203" viewBox="0 0 274 203" fill="none" xmlns="http://www.w3.org/2000/svg">
<g clip-path="url(#clip0_581_162)">
<path opacity="0.1" d="M2.94922 97.3257C7.27585 114.12 16.4273 128.638 30.8892 135.676C60.954 150.302 128.758 142.759 179.362 134.1C205.539 129.622 228.547 117.263 245.26 99.87L2.94922 97.3257Z" fill="#FF0000"/>
<path opacity="0.1" d="M268.316 18.2708H240.55C239.232 18.2708 238.151 17.2901 238.151 16.0917C238.151 14.8933 239.232 13.9101 240.55 13.9101H245.352C244.032 13.9101 242.954 12.9294 242.954 11.7285C242.954 10.5277 244.032 9.54946 245.352 9.54946H241.925C240.605 9.54946 239.524 8.56875 239.524 7.36788C239.524 6.167 240.605 5.18879 241.925 5.18879H256.417C253.201 3.83031 249.442 2.86461 245.111 2.35674C205.593 -2.25411 191.485 0.795603 186.508 3.93038C180.305 7.88637 173.414 10.6313 166.198 12.0213C141.817 16.5921 96.222 22.0911 54.896 10.27C34.3564 4.38321 19.0899 14.3179 9.94092 30.925H273.138C272.794 26.099 271.766 21.6407 269.878 17.7404C269.43 18.0872 268.881 18.2739 268.316 18.2708Z" fill="#FF0000"/>
<path opacity="0.1" d="M0.595097 62.2703C-0.471377 72.0378 -0.108851 81.9095 1.67115 91.5716L245.447 99.6749C252.157 92.6845 257.859 84.7836 262.385 76.2029L0.595097 62.2703ZM97.0115 83.1729H92.2116C93.5317 83.1729 94.6127 84.1562 94.6127 85.3545C94.6127 86.5529 93.5317 87.5336 92.2116 87.5336H64.4459C63.1282 87.5336 62.0472 86.5529 62.0472 85.3545C62.0472 84.1562 63.1282 83.1729 64.4459 83.1729H69.2483C67.9281 83.1729 66.8496 82.1922 66.8496 80.9939C66.8496 79.7955 67.9281 78.8123 69.2483 78.8123H65.8184C64.4982 78.8123 63.4172 77.8316 63.4172 76.6332C63.4172 75.4348 64.4982 74.4516 65.8184 74.4516H93.584C94.9042 74.4516 95.9827 75.4323 95.9827 76.6332C95.9827 77.8341 94.9042 78.8123 93.584 78.8123H97.0115C98.3316 78.8123 99.4102 79.793 99.4102 80.9939C99.4102 82.1947 98.3316 83.1729 97.0115 83.1729Z" fill="#FF0000"/>
<path opacity="0.1" d="M273.148 31.0751L7.00449 36.9543C3.76637 44.5173 1.61924 53.0686 0.630371 61.93H268.485C270.229 56.7455 271.522 51.4193 272.351 46.0109C273.151 40.8046 273.47 35.7685 273.148 31.0751ZM54.6672 50.3516H49.8673C51.1874 50.3516 52.2685 51.3348 52.2685 52.5332C52.2685 53.7315 51.1874 54.7147 49.8673 54.7147H22.1016C20.7839 54.7147 19.7029 53.7315 19.7029 52.5332C19.7029 51.3348 20.7839 50.3516 22.1016 50.3516H26.904C25.5838 50.3516 24.5053 49.3709 24.5053 48.1725C24.5053 46.9741 25.5838 45.9909 26.904 45.9909H23.4741C22.1539 45.9909 21.0729 45.0102 21.0729 43.8118C21.0729 42.6135 22.1539 41.6302 23.4741 41.6302H51.2397C52.5599 41.6302 53.6384 42.611 53.6384 43.8118C53.6384 45.0127 52.5599 45.9909 51.2397 45.9909H54.6672C55.9873 45.9909 57.0659 46.9741 57.0659 48.1725C57.0659 49.3709 55.9873 50.3516 54.6672 50.3516Z" fill="#FF0000"/>
<path opacity="0.1" d="M135.772 195.412C197.262 195.412 247.109 190.806 247.109 185.125C247.109 179.443 197.262 174.837 135.772 174.837C74.2827 174.837 24.4355 179.443 24.4355 185.125C24.4355 190.806 74.2827 195.412 135.772 195.412Z" fill="#FF0000"/>
<path d="M249.246 100.153C249.245 100.135 249.245 100.118 249.246 100.1C249.246 100.073 249.246 100.048 249.246 100.023C249.196 99.7361 249.088 99.4628 248.93 99.2196C248.36 98.3032 247.566 97.5487 246.623 97.028C244.979 96.1223 242.72 95.7345 242.062 94.0058C241.861 93.4704 241.856 92.8874 241.756 92.327C241.582 91.4539 241.182 90.6422 240.596 89.9734C240.011 89.3046 239.261 88.8022 238.421 88.5168C237.639 88.2541 236.794 88.1815 236.035 87.8563C234.336 87.1308 233.439 85.342 232.679 83.6883C231.696 81.5534 230.713 79.4177 229.73 77.2811C228.983 77.6589 228.016 77.4813 227.316 77.0084C226.642 76.5041 226.105 75.8373 225.755 75.0695C224.741 73.0931 224.305 70.8539 223.114 68.9726C221.924 67.0912 219.545 65.6051 217.443 66.4232C217.032 66.6292 216.608 66.8056 216.172 66.9511C214.371 67.3739 212.379 65.3074 210.837 66.3106C210.581 66.4756 210.372 66.705 210.232 66.9761C210.23 66.9595 210.23 66.9427 210.232 66.9261C210.031 67.333 209.919 67.7782 209.903 68.232C209.903 68.3246 209.903 68.4147 209.903 68.5022C209.903 68.5172 209.903 68.5323 209.903 68.5473C209.903 68.9075 209.925 69.2728 209.93 69.6381C209.936 69.9448 209.912 70.2514 209.861 70.5537V70.5287C209.831 70.6988 209.788 70.8662 209.731 71.0291C209.33 72.1099 208.219 72.8179 207.698 73.8336V73.7836C207.64 73.8941 207.589 74.0086 207.546 74.1263C207.454 74.3926 207.406 74.6724 207.405 74.9544C207.36 76.8633 209.375 78.6596 209.609 80.7086C209.776 82.1597 210.107 82.625 211.335 83.4456L211.604 83.6257C211.497 83.6257 211.387 83.6407 211.265 83.6432C211.218 83.6441 211.17 83.6491 211.123 83.6582C210.907 83.5983 210.679 83.5874 210.458 83.6264C210.237 83.6653 210.027 83.7531 209.843 83.8834C208.902 84.6339 206.675 84.056 205.686 83.8834C204.697 83.7108 201.309 84.1761 200.836 86.0625C200.363 87.9489 199.551 91.8417 199.551 91.8417C199.551 91.8417 199.551 94.311 199.249 94.7713C199.238 94.8037 199.238 94.839 199.249 94.8714C199.249 95.5644 199.274 99.7299 198.607 100.803C198.442 101.053 198.455 101.606 198.577 102.287C197.874 103.195 197.214 104.256 197.331 104.951C197.546 106.375 200.42 110.851 204.54 108.454C204.54 108.454 206.884 104.148 203.935 101.859L204.062 101.359C204.953 102.459 205.614 103.25 205.614 103.25C205.614 103.25 205.648 103.343 205.703 103.5H205.614C205.999 104.552 206.232 105.654 206.306 106.773C206.295 107.183 206.221 107.588 206.087 107.976H206.164C206.142 108.061 206.117 108.146 206.087 108.226C205.942 108.649 205.672 109.016 205.312 109.279C203.252 110.745 200.893 121.216 200.893 121.216C200.893 121.216 196.221 138.14 195.286 139.104C194.514 139.894 199.366 142.121 203.008 141.856C203.516 141.825 204.019 141.729 204.503 141.57C204.525 141.82 204.55 142.071 204.575 142.298C204.652 143.049 204.732 143.744 204.782 143.962C204.911 144.507 205.168 150.076 205.168 150.076C205.168 150.076 204.642 153.694 204.769 156.211C204.769 156.384 204.792 156.549 204.807 156.711L204.353 156.781C203.666 158.332 206.498 171.274 206.884 172.363C207.14 173.22 207.284 174.107 207.312 175.002C207.312 175.002 207.063 175.923 207.27 176.426C207.399 176.733 207.483 177.057 207.519 177.389C207.519 177.389 207.35 178.224 207.606 178.77C207.863 179.315 207.564 180.271 207.564 180.271C207.564 180.271 207.479 184.041 206.707 186.093C206.497 186.645 206.436 187.243 206.53 187.826C206.624 188.41 206.87 188.958 207.243 189.415C207.296 189.486 207.355 189.554 207.417 189.618C207.417 189.618 211.676 189.653 212.426 189.618H212.523C212.825 189.575 213.597 186.183 212.909 184.549C212.222 182.915 212.825 180.904 212.825 180.904V177.932C212.825 177.932 213.597 177.216 212.825 175.68C212.052 174.144 212.18 173.679 212.18 173.679C212.18 173.679 213.039 171.207 212.137 170.411C211.235 169.616 212.309 166.599 212.309 166.599L212.613 156.541C212.454 156.489 212.292 156.447 212.127 156.416C212.11 156.251 212.092 156.081 212.075 155.901C211.898 154.079 211.746 151.603 212.14 150.897C212.533 150.192 212.723 144.032 212.785 139.751L216.71 139.902C216.793 141.903 216.88 143.729 216.935 143.962C217.064 144.507 217.323 150.076 217.323 150.076C217.323 150.076 216.795 153.694 216.922 156.211C216.922 156.384 216.945 156.549 216.959 156.711L216.506 156.781C215.819 158.332 218.651 171.274 219.037 172.363C219.293 173.22 219.438 174.107 219.468 175.002C219.468 175.002 219.219 175.923 219.423 176.426C219.552 176.733 219.636 177.057 219.672 177.389C219.672 177.389 219.503 178.224 219.759 178.77C220.016 179.315 219.717 180.271 219.717 180.271C219.717 180.271 219.632 184.041 218.86 186.093C218.653 186.646 218.595 187.244 218.692 187.826C218.789 188.409 219.038 188.955 219.413 189.41C219.467 189.481 219.525 189.549 219.587 189.613C219.587 189.613 223.847 189.648 224.596 189.613H224.694C224.995 189.57 225.767 186.178 225.08 184.544C224.392 182.91 224.995 180.899 224.995 180.899V177.932C224.995 177.932 225.767 177.216 224.995 175.68C224.223 174.144 224.35 173.679 224.35 173.679C224.35 173.679 225.209 171.207 224.308 170.411C223.406 169.616 224.479 166.599 224.479 166.599L224.788 156.541C224.625 156.488 224.459 156.447 224.29 156.416C224.273 156.251 224.255 156.081 224.238 155.901C224.061 154.079 223.909 151.603 224.303 150.897C224.619 150.319 224.801 146.596 224.883 142.961C224.883 142.711 224.883 142.461 224.903 142.211C226.706 142.135 228.503 141.933 230.278 141.605C230.278 141.605 228.178 134.147 228.821 132.934C229.097 132.411 228.699 129.627 228.153 126.627C228.914 127.245 229.86 127.589 230.839 127.603C231.778 129.416 234.635 133.59 236.244 134.232C238.132 134.983 236.715 128.328 235.815 127.365C235.39 126.839 235.032 126.262 234.749 125.646C234.774 125.616 234.802 125.591 234.826 125.564C234.851 125.536 234.871 118.484 234.44 118.611C234.009 118.739 233.496 117.563 233.496 117.563L232.166 105.837L231.608 100.928C232.074 101.274 232.627 101.494 233.103 101.836C234.398 102.79 234.821 104.463 235.389 105.944C235.858 107.163 236.515 108.371 237.594 109.137C238.672 109.902 240.254 110.105 241.33 109.329C242.326 108.601 242.62 107.288 242.84 106.09C244.648 106.728 246.842 105.021 246.608 103.157C246.551 102.697 246.382 102.194 246.621 101.791C247.099 100.996 248.613 101.459 249.112 100.673C249.195 100.537 249.239 100.38 249.236 100.22C249.244 100.185 249.246 100.17 249.246 100.153ZM225.057 106.602C225.03 107.05 225.643 110.648 226.141 113.495C225.732 111.721 224.913 109.827 223.299 108.529C223.299 108.529 223.299 108.439 223.279 108.279H223.299C223.299 108.279 223.231 107.563 223.222 106.545C223.224 105.642 223.291 104.741 223.421 103.848V103.825H223.388C223.388 103.75 223.408 103.673 223.421 103.598C223.52 102.844 223.724 102.108 224.026 101.411C224.16 101.138 224.314 100.875 224.487 100.626C224.753 103.045 225.082 106.15 225.057 106.602ZM226.397 114.938C226.617 116.167 226.773 117.03 226.773 117.03L228.096 126.152V126.194C227.384 122.344 226.475 118.286 226.475 118.286C226.567 117.171 226.541 116.048 226.397 114.938Z" fill="url(#paint0_linear_581_162)"/>
<path d="M210.187 81.209C209.938 78.8973 207.447 76.9034 208.194 74.7043C208.6 73.5059 209.87 72.7729 210.299 71.582C210.583 70.7964 210.456 69.9333 210.458 69.0977C210.461 68.2621 210.655 67.3289 211.347 66.8661C212.842 65.8654 214.765 67.9243 216.508 67.504C216.93 67.3592 217.34 67.1836 217.736 66.9787C219.772 66.1656 222.073 67.6467 223.216 69.518C224.36 71.3894 224.788 73.621 225.77 75.5874C226.105 76.3468 226.624 77.0099 227.279 77.5163C227.956 77.9867 228.883 78.1643 229.615 77.789L232.467 84.1687C233.215 85.8124 234.072 87.5936 235.706 88.3167C236.438 88.6394 237.255 88.712 238.012 88.9746C238.835 89.2662 239.567 89.7698 240.136 90.435C240.704 91.1002 241.088 91.9036 241.25 92.7649C241.347 93.3253 241.35 93.9057 241.547 94.4386C242.182 96.1599 244.366 96.5451 245.958 97.4408C246.879 97.9623 247.651 98.7126 248.2 99.6199C248.449 100.053 248.663 100.621 248.397 101.046C247.916 101.826 246.454 101.366 245.99 102.159C245.756 102.56 245.921 103.06 245.99 103.52C246.217 105.374 244.092 107.073 242.344 106.437C242.132 107.631 241.846 108.939 240.884 109.662C239.85 110.438 238.318 110.233 237.275 109.472C236.231 108.711 235.598 107.508 235.145 106.295C234.595 104.819 234.184 103.152 232.931 102.204C232.477 101.864 231.934 101.644 231.491 101.301C230.495 100.536 229.997 99.2721 229.64 98.0487C229.18 96.5226 228.813 94.954 228.146 93.5129C227.478 92.0719 226.422 90.7309 224.975 90.073C223.617 89.46 222.053 89.5 220.651 89.0022C218.237 88.1466 216.451 86.1076 214.05 85.1469C213.282 84.8228 212.555 84.4097 211.883 83.916C210.675 83.1179 210.346 82.6551 210.187 81.209Z" fill="#3F3D56"/>
<g opacity="0.1">
<path d="M210.411 71.0916C210.462 70.9938 210.507 70.8927 210.545 70.7889C210.827 70.0033 210.702 69.1402 210.705 68.3046C210.704 68.0259 210.73 67.7478 210.782 67.474C210.552 67.9683 210.44 68.5098 210.455 69.0551C210.453 69.7281 210.533 70.4337 210.411 71.0916Z" fill="black"/>
<path d="M241.118 108.877C240.084 109.65 238.552 109.447 237.509 108.684C236.465 107.921 235.83 106.723 235.389 105.504C234.838 104.028 234.43 102.362 233.175 101.414C232.724 101.073 232.178 100.851 231.737 100.511C230.741 99.745 230.243 98.4816 229.884 97.2707C229.423 95.7446 229.06 94.176 228.39 92.7349C227.72 91.2939 226.668 89.9529 225.219 89.2949C223.864 88.682 222.299 88.722 220.897 88.2241C218.481 87.3685 216.695 85.3295 214.296 84.3688C213.528 84.0438 212.8 83.6308 212.127 83.1379C210.946 82.3198 210.632 81.857 210.458 80.4135C210.209 78.2469 208.017 76.358 208.358 74.3165C208.302 74.427 208.253 74.5406 208.211 74.6568C207.464 76.8584 209.955 78.8523 210.204 81.1615C210.366 82.6051 210.702 83.0679 211.873 83.886C212.546 84.3788 213.274 84.7918 214.042 85.1169C216.441 86.0776 218.227 88.1191 220.643 88.9722C222.045 89.4725 223.61 89.43 224.965 90.043C226.414 90.7009 227.455 92.0444 228.135 93.483C228.816 94.9215 229.179 96.4851 229.63 98.0187C229.996 99.2296 230.477 100.493 231.483 101.259C231.934 101.599 232.48 101.822 232.92 102.162C234.166 103.11 234.584 104.776 235.135 106.252C235.588 107.466 236.223 108.666 237.267 109.427C238.311 110.188 239.843 110.393 240.876 109.62C241.536 109.119 241.873 108.356 242.094 107.538C241.897 108.066 241.559 108.529 241.118 108.877Z" fill="black"/>
<path d="M246.237 101.374C246.141 101.553 246.1 101.756 246.117 101.959C246.68 101.401 247.95 101.729 248.394 101.011C248.497 100.833 248.537 100.626 248.508 100.423C247.93 100.973 246.66 100.646 246.237 101.374Z" fill="black"/>
<path d="M242.577 105.652C242.53 105.902 242.483 106.17 242.423 106.43C243.947 106.908 245.708 105.679 245.957 104.128C245.352 105.322 243.858 106.12 242.577 105.652Z" fill="black"/>
</g>
<path d="M213.405 82.4124C213.405 82.4124 214.234 84.0937 211.786 84.1287C209.337 84.1637 213.362 95.0466 213.362 95.0466L217.432 100.25L222.496 97.4984L222.788 89.9079L223.161 85.3221C223.161 85.3221 218.429 83.7784 219.3 81.7369C220.172 79.6955 213.405 82.4124 213.405 82.4124Z" fill="#FBBEBE"/>
<path d="M228.104 126.785C228.104 126.785 231.093 129.739 234.58 125.819L231.902 122.964H228.515L228.104 126.785Z" fill="#575A89"/>
<path opacity="0.1" d="M228.427 122.964L228.016 126.785C228.016 126.785 231.005 129.739 234.492 125.819" fill="black"/>
<path d="M233.456 123.485C233.456 123.485 234.659 126.655 235.531 127.613C236.403 128.571 237.773 135.201 235.947 134.45C234.121 133.7 230.634 128.113 230.425 127.155C230.215 126.197 230.136 123.485 230.136 123.485H233.456Z" fill="#FBBEBE"/>
<path d="M207.345 139.747L223.451 140.372L221.583 133.532L213.47 133.367L207.345 139.747Z" fill="#575A89"/>
<path opacity="0.1" d="M209.584 139.747L225.692 140.372L223.824 133.532L215.709 133.367L209.584 139.747Z" fill="black"/>
<path d="M212.615 151.037C212.234 151.75 212.381 154.217 212.553 156.041C212.663 157.202 212.782 158.095 212.782 158.095C212.782 158.095 206.762 159.971 205.85 158.345C205.618 157.932 205.504 157.209 205.464 156.361C205.34 153.859 205.85 150.254 205.85 150.254C205.85 150.254 205.601 144.71 205.477 144.167C205.427 143.95 205.349 143.259 205.275 142.511C205.165 141.4 205.061 140.164 205.061 140.164L213.28 135.786C213.28 135.786 213.28 136.607 213.265 137.87C213.221 141.838 213.089 150.162 212.615 151.037Z" fill="#FBBEBE"/>
<path opacity="0.1" d="M212.782 158.095C212.782 158.095 206.762 159.971 205.85 158.345C205.618 157.932 205.504 157.209 205.464 156.361C206.709 156.171 210.5 155.646 212.553 156.041C212.662 157.202 212.782 158.095 212.782 158.095Z" fill="black"/>
<path d="M212.989 189.618H212.894C212.169 189.645 208.049 189.618 208.049 189.618C207.989 189.554 207.932 189.488 207.88 189.418C207.516 188.96 207.275 188.415 207.181 187.837C207.088 187.258 207.144 186.666 207.344 186.115C208.092 184.071 208.174 180.319 208.174 180.319C208.174 180.319 208.465 179.36 208.216 178.817C207.967 178.275 208.131 177.441 208.131 177.441C208.093 177.112 208.009 176.789 207.882 176.483C207.676 175.983 207.925 175.065 207.925 175.065C207.896 174.175 207.756 173.292 207.509 172.438C207.135 171.355 204.395 158.47 205.06 156.927C205.06 156.927 210.871 155.926 213.073 156.676L212.782 166.684C212.782 166.684 211.743 169.686 212.615 170.479C213.487 171.272 212.657 173.731 212.657 173.731C212.657 173.731 212.533 174.189 213.28 175.733C214.027 177.276 213.28 177.984 213.28 177.984V180.944C213.28 180.944 212.7 182.945 213.362 184.572C214.025 186.198 213.28 189.565 212.989 189.618Z" fill="#3F3D56"/>
<path d="M224.395 151.037C224.014 151.75 224.16 154.217 224.332 156.041C224.442 157.202 224.562 158.095 224.562 158.095C224.562 158.095 218.541 159.971 217.629 158.345C217.398 157.932 217.283 157.209 217.243 156.361C217.119 153.859 217.629 150.254 217.629 150.254C217.629 150.254 217.38 144.71 217.256 144.167C217.189 143.875 217.071 141.083 216.979 138.578C216.902 136.442 216.84 134.51 216.84 134.51L225.06 135.786C225.06 135.786 225.06 139.416 224.958 143.147C224.868 146.764 224.701 150.472 224.395 151.037Z" fill="#FBBEBE"/>
<path opacity="0.1" d="M224.561 158.095C224.561 158.095 218.541 159.971 217.629 158.345C217.398 157.932 217.283 157.209 217.243 156.361C218.489 156.171 222.28 155.646 224.332 156.041C224.442 157.202 224.561 158.095 224.561 158.095Z" fill="black"/>
<path d="M224.768 189.618H224.673C223.949 189.645 219.829 189.618 219.829 189.618C219.768 189.554 219.712 189.488 219.659 189.418C219.295 188.96 219.055 188.415 218.961 187.837C218.867 187.258 218.923 186.666 219.124 186.115C219.871 184.061 219.946 180.309 219.946 180.309C219.946 180.309 220.237 179.35 219.988 178.807C219.739 178.265 219.903 177.431 219.903 177.431C219.865 177.102 219.781 176.779 219.654 176.473C219.448 175.973 219.697 175.055 219.697 175.055C219.668 174.165 219.528 173.282 219.281 172.428C218.907 171.345 216.167 158.46 216.832 156.917C216.832 156.917 222.643 155.916 224.845 156.666L224.554 166.674C224.554 166.674 223.515 169.676 224.387 170.469C225.259 171.262 224.429 173.721 224.429 173.721C224.429 173.721 224.305 174.179 225.052 175.723C225.799 177.266 225.052 177.974 225.052 177.974V180.934C225.052 180.934 224.472 182.935 225.134 184.562C225.797 186.188 225.059 189.565 224.768 189.618Z" fill="#3F3D56"/>
<path opacity="0.1" d="M216.643 84.3788C219.876 84.3788 222.497 81.7465 222.497 78.4995C222.497 75.2525 219.876 72.6202 216.643 72.6202C213.41 72.6202 210.79 75.2525 210.79 78.4995C210.79 81.7465 213.41 84.3788 216.643 84.3788Z" fill="black"/>
<path d="M216.643 84.1287C219.876 84.1287 222.497 81.4964 222.497 78.2494C222.497 75.0024 219.876 72.3701 216.643 72.3701C213.41 72.3701 210.79 75.0024 210.79 78.2494C210.79 81.4964 213.41 84.1287 216.643 84.1287Z" fill="#FBBEBE"/>
<path opacity="0.1" d="M205.061 140.164L213.28 135.786C213.28 135.786 213.28 136.607 213.265 137.87C212.065 138.591 210.254 139.674 208.513 140.697C207.566 141.255 206.642 141.796 205.85 142.248C205.666 142.349 205.474 142.432 205.275 142.499C205.165 141.4 205.061 140.164 205.061 140.164Z" fill="black"/>
<path opacity="0.1" d="M225.06 135.776C225.06 135.776 225.059 139.406 224.957 143.137H224.927C224.313 143.158 223.698 143.139 223.087 143.079C222.013 142.964 221.154 142.679 220.845 142.113C220.22 141.012 218.469 139.611 216.989 138.568C216.912 136.432 216.85 134.5 216.85 134.5L225.06 135.776Z" fill="black"/>
<path d="M223.53 103.981C223.322 105.609 223.282 107.255 223.411 108.892C227.187 112.019 226.482 118.606 226.482 118.606C226.482 118.606 229.389 131.951 228.766 133.159C228.143 134.368 230.176 141.791 230.176 141.791C228.443 142.12 226.689 142.323 224.927 142.396C224.313 142.418 223.698 142.399 223.087 142.338C222.013 142.223 221.154 141.938 220.845 141.373C219.684 139.331 214.66 136.287 214.66 136.287C214.66 136.287 211.477 138.203 208.513 139.947C207.566 140.505 206.642 141.045 205.85 141.498C205.207 141.84 204.497 142.036 203.77 142.071C200.246 142.333 195.55 140.117 196.297 139.331C197.212 138.371 201.738 121.526 201.738 121.526C201.738 121.526 204.019 111.101 206.012 109.642C206.361 109.377 206.622 109.011 206.759 108.594C207.442 106.69 206.301 103.638 206.301 103.638C206.301 103.638 199.867 95.6745 200.156 95.2142C200.445 94.7538 200.447 92.297 200.447 92.297C200.447 92.297 201.237 88.4192 201.693 86.5429C202.149 84.6665 205.429 84.2062 206.383 84.3738C207.337 84.5414 209.494 85.1243 210.406 84.3738C211.317 83.6233 212.857 84.6665 212.857 84.6665L216.638 85.7123L220.038 83.7108C220.038 83.7108 223.445 83.8859 223.737 84.3438C224.028 84.8016 228.512 85.6797 228.512 85.6797C230.793 87.2209 230.711 94.5612 230.711 94.5612C230.711 94.5612 225.231 99.3547 224.11 101.816C223.82 102.508 223.625 103.236 223.53 103.981Z" fill="#575A89"/>
<path d="M229.471 93.5454L230.716 94.5461L232.004 106.18L233.289 117.856C233.289 117.856 233.787 119.024 234.203 118.899C234.619 118.774 234.577 125.819 234.577 125.819C234.577 125.819 229.809 122.874 228.101 126.785L226.771 117.355C226.771 117.355 225.067 107.723 225.109 106.973C225.151 106.222 224.237 98.0912 224.237 98.0912L229.471 93.5454Z" fill="#575A89"/>
<path d="M201.075 94.0884L200.161 95.2142C200.161 95.2142 200.245 100.05 199.538 101.219C198.831 102.387 201.491 109.224 202.487 108.807C203.484 108.389 205.725 97.716 205.725 97.5909C205.725 97.4658 201.075 94.0884 201.075 94.0884Z" fill="#575A89"/>
<path d="M200.993 100.968C200.993 100.968 198.086 103.928 198.293 105.347C198.499 106.765 201.282 111.221 205.267 108.827C205.267 108.827 208.964 101.844 200.993 100.968Z" fill="#575A89"/>
<path opacity="0.1" d="M212.894 189.625C212.169 189.653 208.049 189.625 208.049 189.625C207.989 189.562 207.932 189.495 207.88 189.425C208.934 189.065 211.21 188.524 212.894 189.625Z" fill="black"/>
<path opacity="0.1" d="M224.678 189.625C223.953 189.653 219.833 189.625 219.833 189.625C219.773 189.562 219.717 189.495 219.664 189.425C220.713 189.065 222.989 188.524 224.678 189.625Z" fill="black"/>
<path opacity="0.1" d="M208.806 116.29C208.171 122.409 208.381 134.553 208.513 139.947C207.566 140.505 206.642 141.045 205.85 141.498C205.207 141.84 204.497 142.036 203.77 142.071C203.506 140.44 207.162 123.685 208.806 116.29Z" fill="black"/>
<path opacity="0.1" d="M209.584 112.817C209.566 112.905 209.265 114.236 208.807 116.29C208.986 114.536 209.235 113.277 209.584 112.817Z" fill="black"/>
<path opacity="0.1" d="M219.697 112.156C219.697 112.156 223.226 134.423 212.774 137.175C212.772 137.165 220.005 136.061 219.697 112.156Z" fill="black"/>
<path opacity="0.1" d="M224.928 142.396C224.313 142.418 223.698 142.399 223.087 142.338L220.267 111.894C222.065 113.075 224.218 134.68 224.928 142.396Z" fill="black"/>
<path opacity="0.1" d="M212.284 74.7918C212.471 74.7769 212.659 74.7964 212.839 74.8494C213.104 74.9817 213.342 75.1615 213.542 75.3798C213.867 75.6524 214.255 75.8379 214.671 75.9188C215.086 75.9998 215.515 75.9736 215.918 75.8426C216.202 75.7151 216.503 75.6308 216.812 75.5924C217.288 75.5924 217.699 75.9427 217.946 76.343C218.192 76.7433 218.319 77.2186 218.531 77.6464C218.743 78.0742 219.081 78.4795 219.547 78.5846C219.771 78.5933 219.99 78.6442 220.195 78.7347C220.32 78.837 220.416 78.9708 220.474 79.1225C220.862 79.9656 221.171 80.9613 222.001 81.3741C222.306 81.5162 222.638 81.5888 222.975 81.5868C223.317 81.612 223.659 81.55 223.971 81.4067C224.278 81.2347 224.531 80.981 224.703 80.6736C225.221 79.813 225.281 78.7472 225.159 77.749C225.007 76.4897 224.561 75.2844 223.856 74.2314C223.115 73.1665 222.105 72.3184 220.93 71.7738C219.755 71.2292 218.457 71.0076 217.168 71.1317C216.719 71.1825 216.273 71.2661 215.836 71.3819C214.252 71.8072 212.697 72.6028 211.736 73.9362C211.503 74.2691 211.248 74.5851 210.971 74.8819C211.407 74.8394 211.845 74.8019 212.284 74.7918Z" fill="black"/>
<path d="M212.284 74.5416C212.471 74.5267 212.659 74.5462 212.839 74.5991C213.104 74.7315 213.342 74.9112 213.542 75.1295C213.867 75.4022 214.255 75.5877 214.671 75.6686C215.086 75.7495 215.515 75.7233 215.918 75.5924C216.202 75.4648 216.503 75.3805 216.812 75.3422C217.288 75.3422 217.699 75.6924 217.946 76.0927C218.192 76.493 218.319 76.9684 218.531 77.3962C218.743 77.824 219.081 78.2293 219.547 78.3344C219.771 78.3431 219.99 78.394 220.195 78.4845C220.32 78.5868 220.416 78.7206 220.474 78.8722C220.862 79.7154 221.171 80.7111 222.001 81.1239C222.306 81.2659 222.638 81.3385 222.975 81.3365C223.317 81.3617 223.659 81.2998 223.971 81.1564C224.278 80.9844 224.531 80.7308 224.703 80.4234C225.221 79.5628 225.281 78.497 225.159 77.4988C225.007 76.2395 224.561 75.0342 223.856 73.9812C223.115 72.9162 222.105 72.0681 220.93 71.5235C219.755 70.9789 218.457 70.7574 217.168 70.8814C216.719 70.9322 216.273 71.0158 215.836 71.1316C214.252 71.5569 212.697 72.3525 211.736 73.686C211.503 74.0188 211.248 74.3348 210.971 74.6317C211.407 74.5891 211.845 74.5516 212.284 74.5416Z" fill="#3F3D56"/>
<path opacity="0.1" d="M205.932 88.5419C205.932 88.5419 206.223 90.8786 205.227 91.4615C204.231 92.0444 205.932 88.5419 205.932 88.5419Z" fill="black"/>
<path opacity="0.1" d="M227.062 106.64C227.062 106.64 229.428 103.137 229.762 104.138C230.096 105.139 227.062 106.64 227.062 106.64Z" fill="black"/>
<path opacity="0.1" d="M227.229 107.806C227.229 107.806 229.563 104.929 229.787 106.055C230.011 107.18 227.229 107.806 227.229 107.806Z" fill="black"/>
<path opacity="0.1" d="M220.374 104.381C219.528 104.393 218.702 104.12 218.028 103.605H217.823C217.125 104.247 216.207 104.593 215.26 104.573C214.768 104.585 214.279 104.496 213.822 104.312C213.365 104.128 212.95 103.853 212.603 103.503H212.331C211.614 104.089 210.713 104.402 209.788 104.385C208.864 104.368 207.975 104.023 207.28 103.41L206.306 103.393C206.306 103.393 207.446 106.445 206.764 108.349L223.41 108.646C223.282 107.01 223.322 105.364 223.53 103.735V103.713L222.616 103.695C221.958 104.153 221.174 104.393 220.374 104.381Z" fill="black"/>
<path opacity="0.1" d="M220.374 104.881C219.528 104.893 218.702 104.62 218.028 104.106H217.823C217.125 104.747 216.207 105.094 215.26 105.074C214.768 105.085 214.279 104.996 213.822 104.812C213.365 104.628 212.95 104.353 212.603 104.003H212.331C211.614 104.59 210.713 104.902 209.788 104.885C208.864 104.868 207.975 104.523 207.28 103.91L206.306 103.893C206.306 103.893 207.446 106.945 206.764 108.849L223.41 109.147C223.282 107.51 223.322 105.864 223.53 104.236V104.213L222.616 104.196C221.958 104.654 221.174 104.893 220.374 104.881Z" fill="black"/>
<path d="M220.374 104.631C219.528 104.643 218.702 104.37 218.028 103.855H217.823C217.125 104.497 216.207 104.843 215.26 104.824C214.768 104.835 214.279 104.746 213.822 104.562C213.365 104.378 212.95 104.103 212.603 103.753H212.331C211.614 104.34 210.713 104.652 209.788 104.635C208.864 104.618 207.975 104.273 207.28 103.66L206.306 103.643C206.306 103.643 207.446 106.695 206.764 108.599L223.41 108.897C223.282 107.26 223.322 105.614 223.53 103.986V103.963L222.616 103.946C221.958 104.404 221.174 104.643 220.374 104.631Z" fill="#3F3D56"/>
<path opacity="0.1" d="M219.634 87.9489C219.634 87.9489 223.139 88.174 223.161 88.6744C223.184 89.1747 219.634 87.9489 219.634 87.9489Z" fill="black"/>
<path opacity="0.1" d="M211.12 85.8148C211.12 85.8148 207.616 86.04 207.593 86.5404C207.571 87.0407 211.12 85.8148 211.12 85.8148Z" fill="black"/>
<path opacity="0.1" d="M224.514 96.0448C224.479 96.0198 224.444 95.9998 224.409 95.9773C225.306 96.7879 225.157 98.5592 224.056 100.02C222.955 101.481 221.283 102.089 220.267 101.434C220.299 101.461 220.327 101.491 220.362 101.519C221.358 102.284 223.102 101.684 224.252 100.173C225.403 98.6617 225.515 96.8129 224.514 96.0448Z" fill="black"/>
<path opacity="0.1" d="M205.262 99.8325C204.375 98.2263 204.49 96.4525 205.494 95.7795C205.456 95.7971 205.416 95.8121 205.379 95.8321C204.278 96.4475 204.134 98.2914 205.045 99.9526C205.957 101.614 207.601 102.454 208.702 101.849C208.738 101.828 208.773 101.805 208.806 101.779C207.708 102.279 206.149 101.439 205.262 99.8325Z" fill="black"/>
<path opacity="0.1" d="M206.448 86.2878L206.127 86.7881L205.307 86.3503L205.738 85.6848C206.023 85.8201 206.268 86.028 206.448 86.2878Z" fill="black"/>
<path d="M201.242 104.804C201.242 104.804 201.972 101.356 200.993 100.26C200.014 99.1646 200.328 93.4204 201.822 93.5455C203.317 93.6706 205.559 98.2139 205.185 99.1746C204.811 100.135 203.399 105.054 203.399 105.054L201.242 104.804Z" fill="#FBBEBE"/>
<path opacity="0.1" d="M224.678 79.9306C224.506 80.238 224.253 80.4916 223.946 80.6636C223.634 80.807 223.292 80.869 222.95 80.8437C222.613 80.8457 222.281 80.7731 221.976 80.6311C221.146 80.2158 220.837 79.2201 220.449 78.3795C220.4 78.2278 220.312 78.0916 220.195 77.9842C219.993 77.892 219.776 77.8386 219.555 77.8266C219.089 77.7215 218.752 77.3137 218.538 76.8884C218.324 76.4631 218.197 75.9927 217.953 75.5849C217.709 75.1771 217.295 74.8194 216.82 74.8344C216.51 74.8756 216.208 74.9642 215.925 75.0971C215.522 75.227 215.093 75.2524 214.678 75.1711C214.262 75.0897 213.874 74.9042 213.549 74.6317C213.349 74.4134 213.111 74.2337 212.847 74.1014C212.667 74.0484 212.478 74.0289 212.291 74.0438C212.005 74.0438 211.721 74.0713 211.434 74.0938C211.292 74.2807 211.14 74.4595 210.979 74.6292C211.414 74.5917 211.853 74.5542 212.291 74.5442C212.478 74.5292 212.667 74.5487 212.847 74.6017C213.111 74.734 213.349 74.9138 213.549 75.1321C213.874 75.4046 214.262 75.5901 214.678 75.6714C215.093 75.7528 215.522 75.7273 215.925 75.5974C216.208 75.4646 216.51 75.376 216.82 75.3347C217.295 75.3347 217.706 75.685 217.953 76.0853C218.2 76.4856 218.327 76.9609 218.538 77.3887C218.75 77.8165 219.089 78.2218 219.555 78.3269C219.776 78.3389 219.993 78.3924 220.195 78.4845C220.32 78.5868 220.416 78.7206 220.474 78.8723C220.862 79.7154 221.171 80.7112 222.001 81.124C222.306 81.266 222.638 81.3386 222.975 81.3366C223.316 81.3618 223.659 81.2999 223.971 81.1565C224.277 80.9845 224.531 80.7308 224.703 80.4234C225.09 79.7163 225.263 78.9112 225.201 78.1068C225.182 78.7492 225.003 79.3765 224.678 79.9306Z" fill="black"/>
<path d="M202.345 107.538C203.583 107.538 204.587 106.855 204.587 106.012C204.587 105.169 203.583 104.486 202.345 104.486C201.107 104.486 200.104 105.169 200.104 106.012C200.104 106.855 201.107 107.538 202.345 107.538Z" fill="#575A89"/>
<path d="M129.273 190.961C171.713 190.961 206.116 156.406 206.116 113.78C206.116 71.1543 171.713 36.5991 129.273 36.5991C86.834 36.5991 52.4302 71.1543 52.4302 113.78C52.4302 156.406 86.834 190.961 129.273 190.961Z" fill="#FF0000"/>
<path d="M169.593 152.566C169.593 164.75 150.523 153.607 130.078 153.607C109.633 153.607 88.9536 164.289 88.9536 152.106C88.9536 145.158 95.5444 135.496 105 128.478C112.124 123.189 120.872 119.402 129.659 119.402C138.696 119.402 147.549 123.502 154.61 129.131C163.523 136.229 169.593 145.766 169.593 152.566Z" fill="#444053"/>
<path d="M154.608 129.126C143.74 127.483 124.085 125.479 105 128.473C112.124 123.184 120.872 119.397 129.66 119.397C138.694 119.397 147.546 123.497 154.608 129.126Z" fill="#F6F8FB"/>
<path opacity="0.05" d="M88.9536 59.2981C88.9536 59.2981 65.806 74.1614 65.9953 97.4108C66.1846 120.66 88.9536 59.2981 88.9536 59.2981Z" fill="black"/>
<path d="M206.087 17.3201C206.087 17.3201 185.114 16.0517 187.587 30.8124C187.587 30.8124 187.089 33.4193 189.45 34.6052C189.45 34.6052 189.488 33.5119 191.6 33.8822C192.353 34.0087 193.118 34.0456 193.879 33.9922C194.908 33.922 195.886 33.5161 196.664 32.8364C196.664 32.8364 202.56 30.3921 204.854 20.7126C204.854 20.7126 206.55 18.6011 206.483 18.0607L202.943 19.5768C202.943 19.5768 204.151 22.1411 203.192 24.2727C203.192 24.2727 203.078 19.6718 202.398 19.7694C202.261 19.7919 200.559 20.6576 200.559 20.6576C200.559 20.6576 202.639 25.1258 201.058 28.3707C201.058 28.3707 201.653 22.8667 199.897 20.9803L197.406 22.4414C197.406 22.4414 199.837 27.0547 198.188 30.8199C198.188 30.8199 198.612 25.0457 196.883 22.7966L194.624 24.5654C194.624 24.5654 196.908 29.1137 195.515 32.236C195.515 32.236 195.334 25.5136 194.136 25.0057C194.136 25.0057 192.16 26.757 191.859 27.475C191.859 27.475 193.423 30.7749 192.454 32.5162C192.454 32.5162 191.859 28.0379 191.371 28.0129C191.371 28.0129 189.403 30.9801 189.196 33.0165C189.196 33.0165 189.283 29.9893 190.892 27.7302C190.892 27.7302 188.989 28.0579 187.881 29.2988C187.881 29.2988 188.187 27.1998 191.368 27.0172C191.368 27.0172 192.995 24.7655 193.431 24.6304C193.431 24.6304 190.255 24.3627 188.329 25.2209C188.329 25.2209 190.023 23.2419 194.011 24.1401L196.253 22.3138C196.253 22.3138 192.073 21.7383 190.3 22.3738C190.3 22.3738 192.34 20.6225 196.853 21.8985L199.282 20.4399C199.282 20.4399 195.717 19.6693 193.593 19.9395C193.593 19.9395 195.834 18.7262 199.992 20.0421L201.735 19.259C201.735 19.259 199.122 18.7437 198.358 18.6636C197.593 18.5835 197.553 18.3684 197.553 18.3684C199.212 18.0974 200.914 18.2958 202.467 18.9413C202.467 18.9413 206.149 17.5528 206.087 17.3201Z" fill="#FF0000"/>
<path d="M184.576 10.7578C184.576 10.7578 175.11 10.1824 176.216 16.8523C176.216 16.8523 175.995 18.0306 177.058 18.566C177.058 18.566 177.073 18.0656 178.03 18.2408C178.37 18.2969 178.715 18.3137 179.058 18.2908C179.524 18.2574 179.966 18.074 180.319 17.7679C180.319 17.7679 182.982 16.6621 184.018 12.2889C184.018 12.2889 184.785 11.3357 184.765 11.0906L183.166 11.7761C183.166 11.7761 183.714 12.9344 183.283 13.8976C183.283 13.8976 183.231 11.8186 182.924 11.8686C182.862 11.8686 182.092 12.2689 182.092 12.2689C182.092 12.2689 183.034 14.2879 182.324 15.754C182.324 15.754 182.593 13.2671 181.801 12.414L180.675 13.0745C180.675 13.0745 181.773 15.161 181.029 16.8623C181.029 16.8623 181.218 14.2529 180.438 13.2371L179.417 14.0352C179.417 14.0352 180.448 16.0892 179.821 17.5002C179.821 17.5002 179.738 14.463 179.195 14.2328C179.195 14.2328 178.304 15.0234 178.167 15.3487C178.167 15.3487 178.874 16.8497 178.436 17.6278C178.436 17.6278 178.167 15.6038 177.938 15.5963C177.938 15.5963 177.048 16.9348 176.956 17.848C176.999 16.9982 177.263 16.1744 177.721 15.4587C177.208 15.5561 176.735 15.8023 176.361 16.1668C176.361 16.1668 176.498 15.2186 177.94 15.136C177.94 15.136 178.675 14.1203 178.872 14.0577C178.872 14.0577 177.437 13.9376 176.568 14.3254C176.568 14.3254 177.332 13.4298 179.136 13.8251L180.132 13.002C180.132 13.002 178.244 12.7518 177.442 13.027C177.442 13.027 178.363 12.2364 180.403 12.8143L181.499 12.1538C181.499 12.1538 179.89 11.8061 178.929 11.9312C178.929 11.9312 179.943 11.3833 181.821 11.9787L182.605 11.6235C182.605 11.6235 181.425 11.3908 181.081 11.3558C180.737 11.3207 180.715 11.2232 180.715 11.2232C181.463 11.0982 182.23 11.1849 182.932 11.4733C182.932 11.4733 184.603 10.8629 184.576 10.7578Z" fill="#FF0000"/>
<path opacity="0.1" d="M267.292 182.635C270.997 182.635 274 182.126 274 181.497C274 180.868 270.997 180.359 267.292 180.359C263.587 180.359 260.584 180.868 260.584 181.497C260.584 182.126 263.587 182.635 267.292 182.635Z" fill="#FF0000"/>
<path opacity="0.1" d="M11.6498 201.571C15.3545 201.571 18.3577 201.062 18.3577 200.433C18.3577 199.804 15.3545 199.295 11.6498 199.295C7.94512 199.295 4.94189 199.804 4.94189 200.433C4.94189 201.062 7.94512 201.571 11.6498 201.571Z" fill="#FF0000"/>
<path opacity="0.1" d="M50.5892 203C54.2939 203 57.2971 202.49 57.2971 201.862C57.2971 201.233 54.2939 200.723 50.5892 200.723C46.8846 200.723 43.8813 201.233 43.8813 201.862C43.8813 202.49 46.8846 203 50.5892 203Z" fill="#FF0000"/>
<path d="M252.611 195.397C258.143 195.397 262.627 194.635 262.627 193.696C262.627 192.756 258.143 191.995 252.611 191.995C247.079 191.995 242.595 192.756 242.595 193.696C242.595 194.635 247.079 195.397 252.611 195.397Z" fill="#FF0000"/>
<path d="M256.751 190.916C257.208 190.541 257.541 190.036 257.707 189.468C257.829 188.895 257.585 188.204 257.04 187.994C256.427 187.759 255.772 188.187 255.276 188.617C254.781 189.047 254.21 189.538 253.56 189.448C253.894 189.144 254.145 188.758 254.286 188.327C254.427 187.897 254.455 187.438 254.367 186.993C254.339 186.809 254.261 186.636 254.143 186.493C253.802 186.128 253.186 186.283 252.778 186.571C251.483 187.486 251.122 189.253 251.114 190.844C250.985 190.271 251.094 189.673 251.092 189.092C251.089 188.512 250.927 187.842 250.434 187.534C250.128 187.37 249.785 187.289 249.438 187.299C248.855 187.276 248.207 187.334 247.809 187.761C247.31 188.294 247.443 189.185 247.873 189.763C248.304 190.341 248.957 190.716 249.557 191.119C250.04 191.407 250.452 191.802 250.763 192.272C250.799 192.338 250.829 192.408 250.852 192.48H254.502C255.318 192.063 256.075 191.537 256.751 190.916Z" fill="#FF0000"/>
<path d="M14.7808 169.938C14.7808 169.938 16.1483 171.735 14.1481 174.442C12.1479 177.149 10.499 179.445 11.1591 181.137C11.1591 181.137 14.1755 176.098 16.639 176.025C19.1024 175.953 17.4809 172.968 14.7808 169.938Z" fill="#FF0000"/>
<path opacity="0.1" d="M14.7808 169.938C14.8995 170.112 14.9934 170.302 15.0597 170.501C17.456 173.328 18.7313 175.968 16.4297 176.033C14.2826 176.095 11.6971 179.948 11.0918 180.921C11.113 180.997 11.1379 181.071 11.1665 181.144C11.1665 181.144 14.183 176.105 16.6464 176.033C19.1099 175.96 17.4809 172.968 14.7808 169.938Z" fill="black"/>
<path d="M17.3242 172.228C17.3242 172.861 17.2519 173.373 17.1647 173.373C17.0776 173.373 17.0078 172.873 17.0078 172.228C17.0078 171.582 17.095 171.892 17.1847 171.892C17.2743 171.892 17.3242 171.595 17.3242 172.228Z" fill="#FFD037"/>
<path d="M18.186 172.983C17.633 173.286 17.1522 173.469 17.1099 173.391C17.0676 173.313 17.4835 173.008 18.0365 172.705C18.5895 172.403 18.3703 172.623 18.4126 172.705C18.455 172.788 18.7489 172.68 18.186 172.983Z" fill="#FFD037"/>
<path d="M7.55247 169.938C7.55247 169.938 6.18498 171.735 8.18266 174.442C10.1803 177.149 11.8318 179.445 11.1717 181.137C11.1717 181.137 8.15277 176.098 5.69179 176.025C3.23082 175.953 4.84988 172.968 7.55247 169.938Z" fill="#FF0000"/>
<path opacity="0.1" d="M7.55217 169.938C7.43233 170.111 7.33834 170.301 7.2732 170.501C4.87699 173.328 3.59917 175.968 5.90322 176.033C8.04786 176.095 10.6359 179.948 11.2387 180.921C11.2183 180.997 11.1942 181.071 11.1664 181.144C11.1664 181.144 8.14749 176.105 5.68652 176.033C3.22554 175.96 4.84959 172.968 7.55217 169.938Z" fill="black"/>
<path d="M5.00928 172.228C5.00928 172.861 5.07902 173.373 5.1662 173.373C5.25338 173.373 5.32313 172.873 5.32313 172.228C5.32313 171.582 5.23595 171.892 5.14877 171.892C5.06159 171.892 5.00928 171.595 5.00928 172.228Z" fill="#FFD037"/>
<path d="M4.13485 172.983C4.68782 173.286 5.17104 173.469 5.21339 173.391C5.25573 173.313 4.83976 173.008 4.28679 172.705C3.73382 172.403 3.95052 172.623 3.91067 172.705C3.87081 172.788 3.58187 172.68 4.13485 172.983Z" fill="#FFD037"/>
<path d="M5.44482 180.909C5.44482 180.909 9.27079 180.791 10.4266 179.966C11.5823 179.14 16.3125 178.157 16.5989 179.465C16.8854 180.774 22.3478 186.045 18.0287 186.08C13.7095 186.115 7.99298 185.402 6.8422 184.699C5.69142 183.996 5.44482 180.909 5.44482 180.909Z" fill="#A8A8A8"/>
<path opacity="0.2" d="M18.1009 185.632C13.7817 185.667 8.06521 184.954 6.91443 184.251C6.03765 183.716 5.68893 181.792 5.57186 180.904H5.44482C5.44482 180.904 5.69391 184.004 6.83722 184.707C7.98052 185.41 13.7045 186.123 18.0237 186.088C19.2691 186.088 19.7 185.63 19.6776 184.972C19.5033 185.375 19.03 185.625 18.1009 185.632Z" fill="black"/>
<path d="M101.954 103.66C103.416 103.578 110.298 103.057 114.669 100.553C115.371 100.138 116.165 99.9037 116.978 99.8701C118.368 99.8301 119.967 100.413 118.944 103.675C117.285 109.012 107.653 115.016 101.675 114.683C95.9257 114.363 89.1057 112.036 84.6022 103.856C84.1707 103.068 83.9582 102.179 83.987 101.281C84.0393 99.6299 84.6371 97.5609 87.7232 99.8676C91.893 102.982 99.8039 103.573 101.391 103.66C101.578 103.67 101.766 103.67 101.954 103.66Z" fill="#444053"/>
<path d="M157.251 103.66C158.713 103.578 165.595 103.057 169.967 100.553C170.669 100.138 171.462 99.9037 172.276 99.8701C173.666 99.8301 175.265 100.413 174.241 103.675C172.582 109.012 162.95 115.016 156.972 114.683C151.223 114.363 144.403 112.036 139.9 103.856C139.468 103.068 139.256 102.179 139.284 101.281C139.337 99.6299 139.934 97.5609 143.021 99.8676C147.19 102.982 155.101 103.573 156.688 103.66C156.875 103.67 157.063 103.67 157.251 103.66Z" fill="#444053"/>
</g>
<defs>
<linearGradient id="paint0_linear_581_162" x1="222.22" y1="189.635" x2="222.22" y2="66.0354" gradientUnits="userSpaceOnUse">
<stop stop-color="#808080" stop-opacity="0.25"/>
<stop offset="0.54" stop-color="#808080" stop-opacity="0.12"/>
<stop offset="1" stop-color="#808080" stop-opacity="0.1"/>
</linearGradient>
<clipPath id="clip0_581_162">
<rect width="274" height="203" fill="white"/>
</clipPath>
</defs>
</svg>
