<svg width="31" height="31" viewBox="0 0 31 31" fill="none" xmlns="http://www.w3.org/2000/svg">
<path fill-rule="evenodd" clip-rule="evenodd" d="M30.55 15.275C30.55 23.7111 23.7111 30.55 15.275 30.55C6.83885 30.55 0 23.7111 0 15.275C0 6.83885 6.83885 0 15.275 0C23.7111 0 30.55 6.83885 30.55 15.275ZM13.0676 13.8329C13.0676 12.6034 14.0643 11.6068 15.2937 11.6068C16.5232 11.6068 17.5198 12.6034 17.5198 13.8329V22.3199C17.5198 23.5493 16.5232 24.546 15.2937 24.546C14.0643 24.546 13.0676 23.5493 13.0676 22.3199V13.8329ZM15.1546 6.18064C14.002 6.18064 13.0676 7.115 13.0676 8.2676C13.0676 9.4202 14.002 10.3546 15.1546 10.3546H15.4329C16.5855 10.3546 17.5198 9.4202 17.5198 8.2676C17.5198 7.115 16.5855 6.18064 15.4329 6.18064H15.1546Z" fill="white"/>
</svg>
