<svg width="35" height="29" viewBox="0 0 35 29" fill="none" xmlns="http://www.w3.org/2000/svg">
<rect x="0.688976" y="0.142948" width="21.7574" height="21.7574" rx="10.8787" fill="#FFF494"/>
<rect x="10.6779" y="6.84798" width="11.7681" height="12.3155" rx="5.88407" fill="#D2FFFF"/>
<rect x="10.6779" y="6.84798" width="11.7681" height="12.3155" rx="5.88407" fill="#D2FFFF"/>
<rect x="10.6779" y="6.84798" width="11.7681" height="12.3155" rx="5.88407" fill="#D2FFFF"/>
<rect x="16.5622" y="11.09" width="11.7681" height="12.3155" rx="5.88407" fill="#D2FFFF"/>
<rect x="16.5622" y="11.09" width="11.7681" height="12.3155" rx="5.88407" fill="#D2FFFF"/>
<rect x="16.5622" y="11.09" width="11.7681" height="12.3155" rx="5.88407" fill="#D2FFFF"/>
<rect x="6.29989" y="11.6374" width="11.7681" height="12.3155" rx="5.88407" fill="#D2FFFF"/>
<rect x="6.29989" y="11.6374" width="11.7681" height="12.3155" rx="5.88407" fill="#D2FFFF"/>
<rect x="6.29989" y="11.6374" width="11.7681" height="12.3155" rx="5.88407" fill="#D2FFFF"/>
<rect x="1.51012" y="15.7426" width="11.7681" height="12.3155" rx="5.88407" fill="#D2FFFF"/>
<rect x="1.51012" y="15.7426" width="11.7681" height="12.3155" rx="5.88407" fill="#D2FFFF"/>
<rect x="1.51012" y="15.7426" width="11.7681" height="12.3155" rx="5.88407" fill="#D2FFFF"/>
<rect x="9.17327" y="15.7426" width="11.7681" height="12.3155" rx="5.88407" fill="#D2FFFF"/>
<rect x="9.17327" y="15.7426" width="11.7681" height="12.3155" rx="5.88407" fill="#D2FFFF"/>
<rect x="9.17327" y="15.7426" width="11.7681" height="12.3155" rx="5.88407" fill="#D2FFFF"/>
<rect x="15.6044" y="15.7426" width="11.7681" height="12.3155" rx="5.88407" fill="#D2FFFF"/>
<rect x="15.6044" y="15.7426" width="11.7681" height="12.3155" rx="5.88407" fill="#D2FFFF"/>
<rect x="15.6044" y="15.7426" width="11.7681" height="12.3155" rx="5.88407" fill="#D2FFFF"/>
<path d="M22.4465 21.7633C22.4465 18.5137 25.0809 15.8793 28.3305 15.8793C31.5802 15.8793 34.2146 18.5137 34.2146 21.7633V22.3107C34.2146 25.5604 31.5802 28.1948 28.3305 28.1948C25.0809 28.1948 22.4465 25.5604 22.4465 22.3107V21.7633Z" fill="#D2FFFF"/>
<path d="M22.4465 21.7633C22.4465 18.5137 25.0809 15.8793 28.3305 15.8793C31.5802 15.8793 34.2146 18.5137 34.2146 21.7633V22.3107C34.2146 25.5604 31.5802 28.1948 28.3305 28.1948C25.0809 28.1948 22.4465 25.5604 22.4465 22.3107V21.7633Z" fill="#D2FFFF"/>
<path d="M22.4465 21.7633C22.4465 18.5137 25.0809 15.8793 28.3305 15.8793C31.5802 15.8793 34.2146 18.5137 34.2146 21.7633V22.3107C34.2146 25.5604 31.5802 28.1948 28.3305 28.1948C25.0809 28.1948 22.4465 25.5604 22.4465 22.3107V21.7633Z" fill="#D2FFFF"/>
</svg>
