<svg width="11" height="11" viewBox="0 0 11 11" fill="none" xmlns="http://www.w3.org/2000/svg">
<path d="M4.4015 5.01098e-05C4.25561 -0.00181797 4.11186 0.048623 4.00887 0.138297C3.90374 0.22797 3.84582 0.349403 3.84367 0.478309H0.556758C0.359372 0.476441 0.174859 0.566114 0.0740201 0.71557C-0.0246734 0.865026 -0.0246734 1.04811 0.0740201 1.19756C0.174859 1.34702 0.359372 1.43669 0.556758 1.43483H10.4432C10.6406 1.43669 10.8251 1.34702 10.926 1.19756C11.0247 1.04811 11.0247 0.865026 10.926 0.71557C10.8251 0.566114 10.6406 0.476441 10.4432 0.478309H7.15633C7.15418 0.349403 7.09625 0.22797 6.99113 0.138297C6.88814 0.048623 6.74439 -0.00181797 6.5985 5.01098e-05H4.4015ZM0.556758 2.39134V10.0435C0.556758 10.5722 1.04808 11 1.65526 11H9.34474C9.95192 11 10.4432 10.5722 10.4432 10.0435V2.39134H0.556758Z" fill="white"/>
</svg>
