<svg width="102" height="102" viewBox="0 0 102 102" fill="none" xmlns="http://www.w3.org/2000/svg">
<g filter="url(#filter0_d_762_14)">
<path d="M4 47C4 21.0426 25.0426 0 51 0C76.9574 0 98 21.0426 98 47C98 72.9574 76.9574 94 51 94C25.0426 94 4 72.9574 4 47Z" fill="white"/>
<mask id="mask0_762_14" style="mask-type:alpha" maskUnits="userSpaceOnUse" x="4" y="0" width="94" height="94">
<path fill-rule="evenodd" clip-rule="evenodd" d="M4 47C4 21.0426 25.0426 0 51 0C76.9574 0 98 21.0426 98 47C98 72.9574 76.9574 94 51 94C25.0426 94 4 72.9574 4 47Z" fill="white"/>
</mask>
<g mask="url(#mask0_762_14)">
<path fill-rule="evenodd" clip-rule="evenodd" d="M50.9983 21.9332C44.1942 21.9332 43.3396 21.963 40.6663 22.0846C37.9977 22.2068 36.1762 22.6293 34.5824 23.2492C32.9337 23.8894 31.5352 24.7459 30.1419 26.1397C28.7475 27.533 27.8911 28.9315 27.2487 30.5797C26.6273 32.1741 26.2043 33.9961 26.0842 36.6636C25.9646 39.3374 25.9332 40.1923 25.9332 47.0001C25.9332 53.8079 25.9635 54.6596 26.0847 57.3334C26.2074 60.002 26.6299 61.8235 27.2492 63.4174C27.89 65.066 28.7465 66.4646 30.1403 67.8579C31.5331 69.2522 32.9316 70.1108 34.5792 70.751C36.1741 71.3709 37.9962 71.7934 40.6642 71.9156C43.338 72.0373 44.1919 72.067 50.9991 72.067C57.8074 72.067 58.6591 72.0373 61.333 71.9156C64.0015 71.7934 65.8252 71.3709 67.42 70.751C69.0682 70.1108 70.4646 69.2522 71.8574 67.8579C73.2518 66.4646 74.1082 65.066 74.7505 63.4179C75.3668 61.8235 75.7898 60.0015 75.9151 57.3339C76.0352 54.6601 76.0666 53.8079 76.0666 47.0001C76.0666 40.1923 76.0352 39.338 75.9151 36.6642C75.7898 33.9956 75.3668 32.1741 74.7505 30.5802C74.1082 28.9315 73.2518 27.533 71.8574 26.1397C70.4631 24.7454 69.0687 23.8889 67.4185 23.2492C65.8205 22.6293 63.9979 22.2068 61.3293 22.0846C58.656 21.963 57.8046 21.9332 50.9983 21.9332ZM48.7537 26.4508C49.1904 26.4501 49.6601 26.4503 50.167 26.4505L51.0024 26.4508C57.6953 26.4508 58.4886 26.4748 61.1316 26.5949C63.5756 26.7067 64.9021 27.1151 65.7857 27.4582C66.9555 27.9125 67.7894 28.4556 68.6663 29.333C69.5436 30.2103 70.0867 31.0459 70.5421 32.2157C70.8852 33.0982 71.2941 34.4247 71.4054 36.8687C71.5255 39.5112 71.5516 40.305 71.5516 46.9947C71.5516 53.6844 71.5255 54.4782 71.4054 57.1207C71.2936 59.5647 70.8852 60.8912 70.5421 61.7738C70.0878 62.9435 69.5436 63.7765 68.6663 64.6533C67.7889 65.5307 66.956 66.0738 65.7857 66.5281C64.9031 66.8728 63.5756 67.2801 61.1316 67.3919C58.4891 67.512 57.6953 67.5381 51.0024 67.5381C44.309 67.5381 43.5158 67.512 40.8733 67.3919C38.4293 67.2791 37.1028 66.8707 36.2187 66.5276C35.0489 66.0733 34.2133 65.5301 33.336 64.6528C32.4587 63.7755 31.9155 62.942 31.4602 61.7717C31.1171 60.8891 30.7082 59.5626 30.5969 57.1186C30.4768 54.4761 30.4528 53.6824 30.4528 46.9884C30.4528 40.2945 30.4768 39.5049 30.5969 36.8624C30.7087 34.4184 31.1171 33.092 31.4602 32.2084C31.9145 31.0386 32.4587 30.203 33.336 29.3257C34.2133 28.4483 35.0489 27.9052 36.2187 27.4498C37.1023 27.1051 38.4293 26.6978 40.8733 26.5855C43.1857 26.4811 44.0819 26.4498 48.7537 26.4445V26.4508ZM61.3749 33.6196C61.3749 31.9584 62.7223 30.6126 64.383 30.6126V30.6115C66.0437 30.6115 67.391 31.9589 67.391 33.6196C67.391 35.2803 66.0437 36.6276 64.383 36.6276C62.7223 36.6276 61.3749 35.2803 61.3749 33.6196ZM51.0017 34.1273C43.8928 34.1276 38.1293 39.8913 38.1293 47.0002C38.1293 54.1093 43.8931 59.8705 51.0022 59.8705C58.1113 59.8705 63.873 54.1093 63.873 47.0002C63.873 39.8911 58.1108 34.1273 51.0017 34.1273ZM59.3578 47.0001C59.3578 42.3852 55.6165 38.6444 51.0021 38.6444C46.3872 38.6444 42.6465 42.3852 42.6465 47.0001C42.6465 51.6145 46.3872 55.3557 51.0021 55.3557C55.6165 55.3557 59.3578 51.6145 59.3578 47.0001Z" fill="black"/>
</g>
</g>
<defs>
<filter id="filter0_d_762_14" x="0" y="0" width="102" height="102" filterUnits="userSpaceOnUse" color-interpolation-filters="sRGB">
<feFlood flood-opacity="0" result="BackgroundImageFix"/>
<feColorMatrix in="SourceAlpha" type="matrix" values="0 0 0 0 0 0 0 0 0 0 0 0 0 0 0 0 0 0 127 0" result="hardAlpha"/>
<feOffset dy="4"/>
<feGaussianBlur stdDeviation="2"/>
<feComposite in2="hardAlpha" operator="out"/>
<feColorMatrix type="matrix" values="0 0 0 0 0 0 0 0 0 0 0 0 0 0 0 0 0 0 0.25 0"/>
<feBlend mode="normal" in2="BackgroundImageFix" result="effect1_dropShadow_762_14"/>
<feBlend mode="normal" in="SourceGraphic" in2="effect1_dropShadow_762_14" result="shape"/>
</filter>
</defs>
</svg>
