<svg width="11" height="11" viewBox="0 0 11 11" fill="none" xmlns="http://www.w3.org/2000/svg">
<path d="M9.08789 0C8.85334 0 8.61876 0.0895755 8.43978 0.268555L7.33333 1.375L9.625 3.66667L10.7314 2.56022C11.0894 2.20226 11.0894 1.62196 10.7314 1.264L9.736 0.268555C9.55702 0.0895755 9.32244 0 9.08789 0ZM6.41667 2.29167L1.03573 7.67261C1.03573 7.67261 1.45637 7.63492 1.61312 7.79167C1.76987 7.94842 1.64083 8.97417 1.83333 9.16667C2.02583 9.35917 3.04512 9.22366 3.19132 9.36987C3.33753 9.51608 3.32739 9.96427 3.32739 9.96427L8.70833 4.58333L6.41667 2.29167ZM0.458333 9.16667L0.0259603 10.3913C0.0089629 10.4396 0.000187841 10.4904 0 10.5417C0 10.6632 0.0482885 10.7798 0.134243 10.8658C0.220197 10.9517 0.336776 11 0.458333 11C0.509562 10.9998 0.560397 10.991 0.608724 10.974C0.610219 10.9735 0.611711 10.9729 0.6132 10.9722L0.624837 10.9687C0.625735 10.9681 0.62663 10.9675 0.627523 10.9669L1.83333 10.5417L1.14583 9.85417L0.458333 9.16667Z" fill="black"/>
</svg>
