<svg width="16" height="16" viewBox="0 0 16 16" fill="none" xmlns="http://www.w3.org/2000/svg">
<path opacity="0.5" d="M8.00017 1.33301C6.68162 1.33301 5.39269 1.72401 4.29636 2.45655C3.20004 3.18909 2.34555 4.23028 1.84097 5.44846C1.33638 6.66663 1.20436 8.00707 1.4616 9.30028C1.71883 10.5935 2.35377 11.7814 3.28612 12.7138C4.21847 13.6461 5.40636 14.2811 6.69956 14.5383C7.99277 14.7955 9.33321 14.6635 10.5514 14.1589C11.7696 13.6543 12.8108 12.7998 13.5433 11.7035C14.2758 10.6072 14.6668 9.31822 14.6668 7.99968C14.6668 7.1242 14.4944 6.25729 14.1594 5.44846C13.8243 4.63962 13.3333 3.90469 12.7142 3.28563C12.0952 2.66658 11.3602 2.17551 10.5514 1.84048C9.74255 1.50545 8.87564 1.33301 8.00017 1.33301ZM8.00017 13.3331C6.94533 13.3331 5.91419 13.0203 5.03712 12.4342C4.16006 11.8482 3.47648 11.0152 3.07281 10.0407C2.66914 9.06612 2.56352 7.99376 2.76931 6.9592C2.9751 5.92463 3.48305 4.97432 4.22893 4.22844C4.97481 3.48256 5.92512 2.97461 6.95968 2.76882C7.99425 2.56304 9.0666 2.66865 10.0411 3.07232C11.0157 3.47599 11.8486 4.15958 12.4347 5.03664C13.0207 5.9137 13.3335 6.94485 13.3335 7.99968C13.3335 9.41417 12.7716 10.7708 11.7714 11.771C10.7712 12.7711 9.41465 13.3331 8.00017 13.3331Z" fill="white"/>
<path d="M13.3333 7.99968H14.6667C14.6667 7.1242 14.4942 6.25729 14.1592 5.44846C13.8242 4.63962 13.3331 3.90469 12.714 3.28563C12.095 2.66658 11.3601 2.17551 10.5512 1.84048C9.74239 1.50545 8.87548 1.33301 8 1.33301V2.66635C9.41449 2.66635 10.771 3.22825 11.7712 4.22844C12.7714 5.22864 13.3333 6.58519 13.3333 7.99968Z" fill="#C7C7C7"/>
</svg>
