<svg width="102" height="102" viewBox="0 0 102 102" fill="none" xmlns="http://www.w3.org/2000/svg">
<g filter="url(#filter0_d_762_13)">
<path d="M51.0005 0C25.0463 0 4.00007 21.5749 4.00007 48.1899C4.00007 69.4815 17.4671 87.5451 36.1418 93.9172C38.4907 94.3633 39.3531 92.8718 39.3531 91.599C39.3531 90.4499 39.3095 86.6537 39.2893 82.627C26.2137 85.5421 23.4546 76.9412 23.4546 76.9412C21.3166 71.3712 18.2361 69.8901 18.2361 69.8901C13.9717 66.8991 18.5575 66.9606 18.5575 66.9606C23.2772 67.3005 25.7623 71.9266 25.7623 71.9266C29.9543 79.2937 36.7574 77.1639 39.4395 75.9325C39.8613 72.8179 41.0794 70.6921 42.4235 69.4887C31.9841 68.2701 21.01 64.138 21.01 45.673C21.01 40.4118 22.846 36.1129 25.8526 32.7381C25.3646 31.5244 23.7558 26.623 26.3079 19.9852C26.3079 19.9852 30.2547 18.6901 39.2363 24.9249C42.9855 23.8572 47.0062 23.3217 51.0005 23.3033C54.9947 23.3217 59.0186 23.8572 62.7747 24.9249C71.7454 18.6901 75.6868 19.9852 75.6868 19.9852C78.2451 26.623 76.6355 31.5244 76.1475 32.7381C79.1612 36.1129 80.9847 40.4118 80.9847 45.673C80.9847 64.1819 69.9896 68.2573 59.5237 69.4504C61.2095 70.9458 62.7116 73.8785 62.7116 78.3744C62.7116 84.8223 62.6572 90.0117 62.6572 91.599C62.6572 92.8814 63.5032 94.384 65.8856 93.9108C84.5502 87.5315 98.0001 69.4743 98.0001 48.1899C98.0001 21.5749 76.957 0 51.0005 0Z" fill="black"/>
</g>
<defs>
<filter id="filter0_d_762_13" x="0.00012207" y="0" width="102" height="102" filterUnits="userSpaceOnUse" color-interpolation-filters="sRGB">
<feFlood flood-opacity="0" result="BackgroundImageFix"/>
<feColorMatrix in="SourceAlpha" type="matrix" values="0 0 0 0 0 0 0 0 0 0 0 0 0 0 0 0 0 0 127 0" result="hardAlpha"/>
<feOffset dy="4"/>
<feGaussianBlur stdDeviation="2"/>
<feComposite in2="hardAlpha" operator="out"/>
<feColorMatrix type="matrix" values="0 0 0 0 0 0 0 0 0 0 0 0 0 0 0 0 0 0 0.25 0"/>
<feBlend mode="normal" in2="BackgroundImageFix" result="effect1_dropShadow_762_13"/>
<feBlend mode="normal" in="SourceGraphic" in2="effect1_dropShadow_762_13" result="shape"/>
</filter>
</defs>
</svg>
