<svg width="31" height="27" viewBox="0 0 31 27" fill="none" xmlns="http://www.w3.org/2000/svg">
<path fill-rule="evenodd" clip-rule="evenodd" d="M13.4917 1.02857C14.2835 -0.342856 16.263 -0.342857 17.0548 1.02857L30.2679 23.9143C31.0597 25.2857 30.0699 27 28.4864 27H2.06021C0.476622 27 -0.513124 25.2857 0.278671 23.9143L13.4917 1.02857ZM12.7513 7.93194C12.7246 7.53594 13.0386 7.2 13.4355 7.2H17.1111C17.508 7.2 17.822 7.53594 17.7953 7.93194L17.0308 19.2462C17.0065 19.6062 16.7074 19.8857 16.3466 19.8857H14.1999C13.8392 19.8857 13.5401 19.6062 13.5158 19.2462L12.7513 7.93194ZM15.2733 20.5714C14.2318 20.5714 13.3876 21.4157 13.3876 22.4571C13.3876 23.4986 14.2318 24.3428 15.2733 24.3428C16.3147 24.3428 17.159 23.4986 17.159 22.4571C17.159 21.4157 16.3147 20.5714 15.2733 20.5714Z" fill="white"/>
</svg>
